HIERARCHY
ROOT Hips
{
	OFFSET 51.579899 -1.153486 95.853798
	CHANNELS 6 Xposition Yposition Zposition Xrotation Yrotation Zrotation
	JOINT spine
	{
		OFFSET 0.000000 -0.458068 7.965683
		CHANNELS 3 Xrotation Yrotation Zrotation
		JOINT spine1
		{
			OFFSET 0.000000 -0.000002 10.243103
			CHANNELS 3 Xrotation Yrotation Zrotation
			JOINT spine2
			{
				OFFSET 0.000000 -0.000002 9.814751
				CHANNELS 3 Xrotation Yrotation Zrotation
				JOINT Neck
				{
					OFFSET 0.000000 -1.201384 25.198593
					CHANNELS 3 Xrotation Yrotation Zrotation
					JOINT Head
					{
						OFFSET 0.000000 -0.000001 7.613144
						CHANNELS 3 Xrotation Yrotation Zrotation
						End Site
						{
							OFFSET 0.000000 6.077327 18.428101
						}
					}
				}
				JOINT RightShoulder
				{
					OFFSET -4.132702 0.575449 10.599197
					CHANNELS 3 Xrotation Yrotation Zrotation
					JOINT RightArm
					{
						OFFSET 0.000000 -0.000002 13.901794
						CHANNELS 3 Xrotation Yrotation Zrotation
						JOINT RightArmRoll
						{
							OFFSET 0.000000 -0.000001 7.017883
							CHANNELS 3 Xrotation Yrotation Zrotation
							JOINT RightForeArm
							{
								OFFSET 0.000000 -0.000003 20.440598
								CHANNELS 3 Xrotation Yrotation Zrotation
								JOINT RightForeArmRoll
								{
									OFFSET 0.000000 -0.000001 7.875153
									CHANNELS 3 Xrotation Yrotation Zrotation
									JOINT RightHand
									{
										OFFSET 0.000000 -0.000003 15.803696
										CHANNELS 3 Xrotation Yrotation Zrotation
										End Site
										{
											OFFSET 0.000000 0.000000 0.100006
										}
									}
								}
							}
						}
					}
				}
				JOINT LeftShoulder
				{
					OFFSET 4.132702 0.575449 10.599197
					CHANNELS 3 Xrotation Yrotation Zrotation
					JOINT LeftArm
					{
						OFFSET 0.000000 -0.000002 13.901794
						CHANNELS 3 Xrotation Yrotation Zrotation
						JOINT LeftArmRoll
						{
							OFFSET 0.000000 -0.000001 7.017883
							CHANNELS 3 Xrotation Yrotation Zrotation
							JOINT LeftForeArm
							{
								OFFSET 0.000000 -0.000003 20.440598
								CHANNELS 3 Xrotation Yrotation Zrotation
								JOINT LeftForeArmRoll
								{
									OFFSET 0.000000 -0.000001 7.875153
									CHANNELS 3 Xrotation Yrotation Zrotation
									JOINT LeftHand
									{
										OFFSET 0.000000 -0.000003 15.803696
										CHANNELS 3 Xrotation Yrotation Zrotation
										End Site
										{
											OFFSET 0.000000 0.000000 0.100006
										}
									}
								}
							}
						}
					}
				}
			}
		}
	}
	JOINT RightUpLeg
	{
		OFFSET -7.060482 1.086100 -1.294701
		CHANNELS 3 Xrotation Yrotation Zrotation
		JOINT RightUpLegRoll
		{
			OFFSET 0.000000 -0.000003 18.530800
			CHANNELS 3 Xrotation Yrotation Zrotation
			JOINT RightLeg
			{
				OFFSET 0.000000 0.000004 -22.947601
				CHANNELS 3 Xrotation Yrotation Zrotation
				JOINT RightLegRoll
				{
					OFFSET 0.000000 -0.000004 23.022598
					CHANNELS 3 Xrotation Yrotation Zrotation
					JOINT RightFoot
					{
						OFFSET 0.000000 -0.000003 19.162498
						CHANNELS 3 Xrotation Yrotation Zrotation
						JOINT RightToeBase
						{
							OFFSET 0.000000 -0.000003 16.018799
							CHANNELS 3 Xrotation Yrotation Zrotation
							End Site
							{
								OFFSET 0.006790 0.894206 7.757812
							}
						}
					}
				}
			}
		}
	}
	JOINT LeftUpLeg
	{
		OFFSET 7.060482 1.086100 -1.294701
		CHANNELS 3 Xrotation Yrotation Zrotation
		JOINT LeftUpLegRoll
		{
			OFFSET 0.000000 -0.000003 18.530899
			CHANNELS 3 Xrotation Yrotation Zrotation
			JOINT LeftLeg
			{
				OFFSET 0.000000 -0.000004 22.947495
				CHANNELS 3 Xrotation Yrotation Zrotation
				JOINT LeftLegRoll
				{
					OFFSET 0.000000 -0.000004 23.235504
					CHANNELS 3 Xrotation Yrotation Zrotation
					JOINT LeftFoot
					{
						OFFSET 0.000000 -0.000003 18.949600
						CHANNELS 3 Xrotation Yrotation Zrotation
						JOINT LeftToeBase
						{
							OFFSET 0.000000 -0.000003 16.018799
							CHANNELS 3 Xrotation Yrotation Zrotation
							End Site
							{
								OFFSET -0.030430 0.894206 7.757812
							}
						}
					}
				}
			}
		}
	}
}
MOTION
Frames: 10
Frame Time: 0.041667
52.761299 -4.044135 95.628296 -0.030366 0.113379 0.426557 -2.549962 -0.069260 0.010513 -1.098454 -0.144188 0.021505 0.546623 -0.143923 0.023232 24.348714 -2.780345 3.701024 -0.355089 5.096853 3.057429 -11.922861 -35.276947 -12.805668 35.518486 -41.652481 74.521885 0.000000 0.000001 0.000001 0.642274 4.667300 0.732747 -0.000004 -0.000000 -3.002081 -5.000136 -8.000104 -0.000014 -11.129998 39.512771 12.013154 37.770652 37.503199 -76.774359 0.000002 0.000005 -0.000001 -0.039068 -5.608231 -0.689361 -0.000000 -0.000003 3.033277 -5.000147 8.000172 0.000029 0.192947 -177.357009 -3.158512 -179.999991 0.000005 -1.080995 175.064811 -2.194845 -0.605470 0.000003 0.000002 0.065057 69.344698 6.925487 2.030515 25.456919 -7.355063 -0.000004 -0.617677 176.532195 1.934753 -0.000020 -0.000004 -1.088740 -5.909948 2.163849 0.291386 -0.000005 -0.000002 -0.087751 69.745316 -6.905187 -2.037351 25.456957 7.355612 -0.000010 
52.759899 -4.039406 95.625092 -0.031481 0.111191 0.423425 -2.549509 -0.069101 0.009221 -1.097544 -0.143312 0.019752 0.547531 -0.143070 0.021469 24.346141 -2.786189 3.706224 -0.352143 5.105874 3.061291 -11.914820 -35.285304 -12.795202 35.517469 -41.649944 74.517944 0.000000 -0.000001 0.000000 0.641060 4.664401 0.732998 -0.000004 -0.000001 -3.002078 -5.000136 -8.000104 -0.000017 -11.135522 39.507358 12.020185 37.777387 37.498364 -76.783095 0.000000 0.000002 0.000001 -0.039067 -5.613222 -0.689429 -0.000001 -0.000003 3.033302 -5.000147 8.000172 0.000027 0.189271 -177.353020 -3.155339 -179.999991 0.000005 -1.080995 175.058363 -2.195817 -0.605803 0.000002 0.000002 0.065036 69.347341 6.925466 2.030546 25.456923 -7.355063 -0.000004 -0.613857 176.534189 1.935091 -0.000020 -0.000004 -1.088730 -5.904529 2.164944 0.290971 -0.000005 -0.000002 -0.087701 69.743430 -6.905260 -2.037279 25.456953 7.355612 -0.000010 
52.768299 -4.046237 95.623993 -0.032767 0.108907 0.420322 -2.549073 -0.068943 0.007906 -1.096583 -0.142395 0.017979 0.548494 -0.142176 0.019686 24.344063 -2.791913 3.711298 -0.349146 5.114495 3.065066 -11.906194 -35.294494 -12.784014 35.514607 -41.647772 74.512453 0.000000 -0.000000 0.000001 0.640986 4.661311 0.733263 -0.000004 -0.000001 -3.002081 -5.000135 -8.000105 -0.000021 -11.141337 39.502703 12.027682 37.784142 37.492360 -76.791844 0.000000 0.000004 -0.000001 -0.039068 -5.618301 -0.689514 -0.000002 -0.000003 3.033317 -5.000147 8.000172 0.000030 0.185623 -177.349017 -3.151964 -179.999991 0.000005 -1.080995 175.051560 -2.197782 -0.606236 0.000003 0.000002 0.065017 69.349984 6.925479 2.030483 25.456918 -7.355064 -0.000004 -0.609715 176.537195 1.935489 -0.000020 -0.000004 -1.088730 -5.898919 2.165990 0.290550 -0.000005 -0.000002 -0.087650 69.741436 -6.905329 -2.037317 25.456957 7.355614 -0.000011 
52.765800 -4.042678 95.625389 -0.034162 0.106585 0.417200 -2.548632 -0.068794 0.006589 -1.095573 -0.141472 0.016202 0.549495 -0.141276 0.017899 24.342077 -2.797326 3.716206 -0.345972 5.122556 3.068733 -11.897127 -35.304227 -12.772274 35.510611 -41.645897 74.505964 0.000001 0.000000 -0.000001 0.641787 4.658131 0.733541 -0.000003 -0.000002 -3.002080 -5.000136 -8.000107 -0.000019 -11.147429 39.498728 12.035583 37.790836 37.485598 -76.800587 -0.000001 0.000003 -0.000004 -0.039068 -5.623341 -0.689624 -0.000001 -0.000003 3.033338 -5.000146 8.000172 0.000027 0.181935 -177.345015 -3.148512 -179.999991 0.000005 -1.080995 175.044471 -2.199759 -0.606681 0.000003 0.000002 0.065002 69.352730 6.925465 2.030509 25.456919 -7.355064 -0.000004 -0.605397 176.539189 1.935927 -0.000020 -0.000004 -1.088720 -5.893229 2.166998 0.290132 -0.000005 -0.000002 -0.087600 69.739442 -6.905397 -2.037353 25.456953 7.355613 -0.000010 
52.765400 -4.025147 95.627403 -0.035598 0.104277 0.414007 -2.548201 -0.068663 0.005288 -1.094553 -0.140580 0.014440 0.550521 -0.140406 0.016126 24.340086 -2.802192 3.720906 -0.342504 5.129837 3.072304 -11.887789 -35.314096 -12.760148 35.505915 -41.644568 74.499045 0.000000 0.000002 -0.000000 0.643185 4.654951 0.733835 -0.000004 -0.000001 -3.002080 -5.000136 -8.000103 -0.000017 -11.153761 39.495323 12.043842 37.797218 37.478279 -76.808988 -0.000000 0.000003 -0.000002 -0.039069 -5.628243 -0.689747 -0.000002 -0.000003 3.033347 -5.000144 8.000173 0.000032 0.178128 -177.341012 -3.145076 -179.999991 0.000005 -1.080995 175.037162 -2.201722 -0.607134 0.000003 0.000002 0.064990 69.355483 6.925482 2.030540 25.456918 -7.355063 -0.000004 -0.601041 176.541197 1.936353 -0.000020 -0.000004 -1.088720 -5.887559 2.167985 0.289727 -0.000004 -0.000002 -0.087550 69.737454 -6.905468 -2.037289 25.456959 7.355613 -0.000010 
52.762501 -4.026375 95.626495 -0.037012 0.102040 0.410695 -2.547772 -0.068561 0.004023 -1.093514 -0.139755 0.012709 0.551556 -0.139602 0.014385 24.337777 -2.806327 3.725377 -0.338616 5.136170 3.075755 -11.878303 -35.323683 -12.747816 35.501114 -41.643773 74.491969 0.000002 0.000000 -0.000002 0.644920 4.651858 0.734136 -0.000004 -0.000001 -3.002080 -5.000139 -8.000102 -0.000018 -11.160282 39.492311 12.052391 37.803181 37.470732 -76.816843 0.000000 0.000006 0.000001 -0.039068 -5.632891 -0.689884 -0.000001 -0.000003 3.033369 -5.000147 8.000171 0.000029 0.174127 -177.337010 -3.141749 -179.999991 0.000005 -1.080995 175.029663 -2.203697 -0.607596 0.000002 0.000002 0.064986 69.358351 6.925505 2.030466 25.456919 -7.355064 -0.000004 -0.596797 176.543192 1.936726 -0.000020 -0.000005 -1.088710 -5.882018 2.168981 0.289346 -0.000004 -0.000002 -0.087500 69.735466 -6.905536 -2.037324 25.456957 7.355614 -0.000011 
52.757198 -4.024586 95.628090 -0.038339 0.099928 0.407215 -2.547351 -0.068497 0.002814 -1.092483 -0.139032 0.011026 0.552586 -0.138900 0.012694 24.334938 -2.809507 3.729566 -0.334195 5.141343 3.079099 -11.868809 -35.332565 -12.735421 35.496664 -41.643759 74.485419 0.000000 0.000000 0.000004 0.646715 4.648949 0.734439 -0.000006 -0.000000 -3.002079 -5.000135 -8.000104 -0.000018 -11.167008 39.489661 12.061231 37.808481 37.463239 -76.823994 0.000001 0.000004 0.000002 -0.039069 -5.637170 -0.690025 -0.000002 -0.000003 3.033389 -5.000148 8.000171 0.000028 0.169858 -177.334018 -3.138629 -179.999991 0.000005 -1.080995 175.021999 -2.205658 -0.608064 0.000003 0.000002 0.064990 69.361309 6.925498 2.030480 25.456921 -7.355063 -0.000005 -0.592805 176.546183 1.936995 -0.000020 -0.000004 -1.088710 -5.876708 2.170007 0.289001 -0.000005 -0.000002 -0.087450 69.733376 -6.905635 -2.037274 25.456955 7.355612 -0.000010 
52.762901 -4.023714 95.629402 -0.039512 0.097997 0.403518 -2.546940 -0.068479 0.001681 -1.091473 -0.138446 0.009409 0.553596 -0.138335 0.011070 24.331282 -2.811521 3.733449 -0.329119 5.145176 3.082327 -11.859460 -35.340341 -12.723140 35.493180 -41.644596 74.479832 0.000001 -0.000001 -0.000003 0.648307 4.646305 0.734736 -0.000004 -0.000002 -3.002075 -5.000136 -8.000103 -0.000020 -11.173903 39.487397 12.070304 37.813099 37.456003 -76.830319 -0.000000 0.000005 0.000001 -0.039069 -5.640970 -0.690175 -0.000003 -0.000003 3.033410 -5.000147 8.000172 0.000031 0.165244 -177.330016 -3.135832 -179.999991 0.000005 -1.080995 175.014267 -2.207619 -0.608534 0.000003 0.000002 0.065005 69.364369 6.925458 2.030581 25.456921 -7.355064 -0.000004 -0.589214 176.547180 1.937148 -0.000020 -0.000004 -1.088700 -5.871730 2.171070 0.288701 -0.000005 -0.000002 -0.087400 69.731498 -6.905707 -2.037204 25.456955 7.355613 -0.000010 
52.773201 -4.024886 95.630791 -0.040466 0.096301 0.399554 -2.546534 -0.068517 0.000643 -1.090504 -0.138035 0.007875 0.554571 -0.137942 0.009531 24.326683 -2.812169 3.736980 -0.323263 5.147468 3.085434 -11.850393 -35.346704 -12.711147 35.491220 -41.646385 74.475700 0.000001 -0.000001 0.000001 0.649422 4.644026 0.735032 -0.000004 -0.000001 -3.002068 -5.000136 -8.000104 -0.000015 -11.180911 39.485218 12.079528 37.816705 37.449435 -76.835489 -0.000001 0.000005 -0.000000 -0.039071 -5.644180 -0.690327 -0.000001 -0.000003 3.033421 -5.000147 8.000172 0.000029 0.160208 -177.328008 -3.133451 -179.999991 0.000005 -1.080995 175.006481 -2.208599 -0.608923 0.000003 0.000002 0.065031 69.367442 6.925491 2.030495 25.456919 -7.355063 -0.000005 -0.586166 176.549175 1.937114 -0.000020 -0.000004 -1.088700 -5.867200 2.172202 0.288457 -0.000005 -0.000002 -0.087351 69.729613 -6.905779 -2.037234 25.456957 7.355613 -0.000010 
52.767799 -4.018017 95.630783 -0.041134 0.094895 0.395274 -2.546142 -0.068621 -0.000280 -1.089573 -0.137834 0.006441 0.555496 -0.137758 0.008094 24.320757 -2.811234 3.740128 -0.316510 5.148031 3.088412 -11.841767 -35.351235 -12.699626 35.491142 -41.649298 74.473521 0.000001 0.000000 0.000001 0.649788 4.642206 0.735319 -0.000004 -0.000001 -3.002069 -5.000136 -8.000104 -0.000024 -11.188014 39.483035 12.088868 37.819311 37.443732 -76.839293 0.000001 0.000004 0.000003 -0.039069 -5.646689 -0.690471 -0.000002 -0.000003 3.033440 -5.000148 8.000171 0.000027 0.154684 -177.325016 -3.131591 -179.999991 0.000005 -1.080995 174.998667 -2.209567 -0.609310 0.000003 0.000002 0.065072 69.370605 6.925455 2.030490 25.456923 -7.355062 -0.000004 -0.583799 176.550172 1.936861 -0.000020 -0.000004 -1.088690 -5.863211 2.173411 0.288278 -0.000004 -0.000002 -0.087302 69.727742 -6.905887 -2.037269 25.456957 7.355613 -0.000010 
